<svg xmlns="http://www.w3.org/2000/svg" width="512" height="512" viewBox="0 0 512 512" style="overflow: visible;" data-svgdocument="" id="_y95_9c4CzC0Y_uA8PsJ8m" class="fl-svgdocument" x="0" y="0" overflow="hidden"><path text="LOTO LORD" text-anchor="start" font-size="100" letter-spacing="0" side="left" offset="0" dx="0" dy="0" space="preserve" href="" font-family="Fredoka One" font-scale="contain" transform="matrix(0.6977524177834862, 0, 0, 0.6977524177834862, 45.20899032886605, 341.96948077162097)" x="0" y="0" fill="#1e2629" data-fl-textpath="" id="_VgVryR9aMxP6lEpSAYPBe" data-uid="o_fc8chdan5_12" d="M 21.7-64.4L 21.7-14.8L 48.9-14.8Q 52.2-14.8  53.7-14.05Q 55.2-13.3  55.7-11.7Q 56.2-10.1  56.2-7.45Q 56.2-4.8  55.7-3.2Q 55.2-1.6  54-1L 54-1Q 52.1 0  48.8 0L 48.8 0L 12.8 0Q 5.8 0  4.6-3.8L 4.6-3.8Q 4-5.4  4-8.9L 4-8.9L 4-64.5Q 4-66.8  4.15-67.95Q 4.3-69.1  5.1-70.6L 5.1-70.6Q 6.5-73.3  12.9-73.3L 12.9-73.3Q 19.9-73.3  21.2-69.6L 21.2-69.6Q 21.7-67.9  21.7-64.4L 21.7-64.4ZM 97.1-74.2L 97.1-74.2Q 111.9-74.2  122.8-63.5Q 133.7-52.8  133.7-36.95Q 133.7-21.1  123.3-9.95Q 112.9 1.2  97.7 1.2Q 82.5 1.2  71.85-9.8Q 61.2-20.8  61.2-36L 61.2-36Q 61.2-44.3  64.2-51.55Q 67.2-58.8  72.2-63.7Q 77.2-68.6  83.7-71.4Q 90.2-74.2  97.1-74.2ZM 78.9-36.5Q 78.9-27.6  84.65-22.05Q 90.4-16.5  97.5-16.5Q 104.6-16.5  110.3-21.9Q 116-27.3  116-36.4Q 116-45.5  110.25-51Q 104.5-56.5  97.4-56.5Q 90.3-56.5  84.6-50.95Q 78.9-45.4  78.9-36.5ZM 139-73.4L 139-73.4L 194.6-73.4Q 197.8-73.4  199.3-72.65Q 200.8-71.9  201.3-70.3Q 201.8-68.7  201.8-66.1Q 201.8-63.5  201.3-61.95Q 200.8-60.4  199.6-59.8L 199.6-59.8Q 197.8-58.9  194.5-58.9L 194.5-58.9L 175.4-58.9L 175.4-8.6Q 175.4-6.3  175.25-5.2Q 175.1-4.1  174.35-2.65Q 173.6-1.2  171.7-0.6Q 169.8 0  166.7 0Q 163.6 0  161.75-0.6Q 159.9-1.2  159.15-2.65Q 158.4-4.1  158.25-5.25Q 158.1-6.4  158.1-8.7L 158.1-8.7L 158.1-58.9L 138.9-58.9Q 135.7-58.9  134.2-59.65Q 132.7-60.4  132.2-62Q 131.7-63.6  131.7-66.2Q 131.7-68.8  132.2-70.35Q 132.7-71.9  133.9-72.5L 133.9-72.5Q 135.7-73.4  139-73.4ZM 235.7-74.2L 235.7-74.2Q 250.5-74.2  261.4-63.5Q 272.3-52.8  272.3-36.95Q 272.3-21.1  261.9-9.95Q 251.5 1.2  236.3 1.2Q 221.1 1.2  210.45-9.8Q 199.8-20.8  199.8-36L 199.8-36Q 199.8-44.3  202.8-51.55Q 205.8-58.8  210.8-63.7Q 215.8-68.6  222.3-71.4Q 228.8-74.2  235.7-74.2ZM 217.5-36.5Q 217.5-27.6  223.25-22.05Q 229-16.5  236.1-16.5Q 243.2-16.5  248.9-21.9Q 254.6-27.3  254.6-36.4Q 254.6-45.5  248.85-51Q 243.1-56.5  236-56.5Q 228.9-56.5  223.2-50.95Q 217.5-45.4  217.5-36.5ZM 321.8-64.4L 321.8-14.8L 349-14.8Q 352.3-14.8  353.8-14.05Q 355.3-13.3  355.8-11.7Q 356.3-10.1  356.3-7.45Q 356.3-4.8  355.8-3.2Q 355.3-1.6  354.1-1L 354.1-1Q 352.2 0  348.9 0L 348.9 0L 312.9 0Q 305.9 0  304.7-3.8L 304.7-3.8Q 304.1-5.4  304.1-8.9L 304.1-8.9L 304.1-64.5Q 304.1-66.8  304.25-67.95Q 304.4-69.1  305.2-70.6L 305.2-70.6Q 306.6-73.3  313-73.3L 313-73.3Q 320-73.3  321.3-69.6L 321.3-69.6Q 321.8-67.9  321.8-64.4L 321.8-64.4ZM 397.2-74.2L 397.2-74.2Q 412-74.2  422.9-63.5Q 433.8-52.8  433.8-36.95Q 433.8-21.1  423.4-9.95Q 413 1.2  397.8 1.2Q 382.6 1.2  371.95-9.8Q 361.3-20.8  361.3-36L 361.3-36Q 361.3-44.3  364.3-51.55Q 367.3-58.8  372.3-63.7Q 377.3-68.6  383.8-71.4Q 390.3-74.2  397.2-74.2ZM 379-36.5Q 379-27.6  384.75-22.05Q 390.5-16.5  397.6-16.5Q 404.7-16.5  410.4-21.9Q 416.1-27.3  416.1-36.4Q 416.1-45.5  410.35-51Q 404.6-56.5  397.5-56.5Q 390.4-56.5  384.7-50.95Q 379-45.4  379-36.5ZM 496.4-12.4L 496.4-12.4Q 497.9-8.8  497.9-7.2L 497.9-7.2Q 497.9-3.4  491.7-0.8L 491.7-0.8Q 488.5 0.6  486.55 0.6Q 484.6 0.6  483.35-0.35Q 482.1-1.3  481.5-2.3L 481.5-2.3Q 480.5-4.2  473.7-20.4L 473.7-20.4L 470.6-20.2L 458-20.2L 458-8.9Q 458-6.6  457.85-5.45Q 457.7-4.3  456.9-2.8L 456.9-2.8Q 455.5-0.1  449.1-0.1L 449.1-0.1Q 442.1-0.1  440.9-3.8L 440.9-3.8Q 440.3-5.5  440.3-9L 440.3-9L 440.3-64.5Q 440.3-66.8  440.45-67.95Q 440.6-69.1  441.4-70.6L 441.4-70.6Q 442.8-73.3  449.2-73.3L 449.2-73.3L 470.8-73.3Q 479.6-73.3  487.9-66.9L 487.9-66.9Q 491.9-63.8  494.5-58.5Q 497.1-53.2  497.1-46.7L 497.1-46.7Q 497.1-35.4  489.6-28.1L 489.6-28.1Q 491.8-22.8  496.4-12.4ZM 458-55.6L 458-37.9L 470.8-37.9Q 473.7-37.9  476.6-40.1Q 479.5-42.3  479.5-46.7Q 479.5-51.1  476.6-53.35Q 473.7-55.6  470.6-55.6L 470.6-55.6L 458-55.6ZM 512.3-73.4L 512.3-73.4L 530.8-73.3Q 545.3-73.3  556.3-62.85Q 567.3-52.4  567.3-37.15Q 567.3-21.9  556.55-11Q 545.8-0.1  530.5-0.1L 530.5-0.1L 512.2-0.1Q 506.1-0.1  504.6-2.6L 504.6-2.6Q 503.4-4.7  503.4-9L 503.4-9L 503.4-64.6Q 503.4-67  503.55-68.1Q 503.7-69.2  504.5-70.7L 504.5-70.7Q 505.9-73.4  512.3-73.4ZM 530.8-17.8Q 538-17.8  543.8-23.15Q 549.6-28.5  549.6-36.6Q 549.6-44.7  543.95-50.15Q 538.3-55.6  530.7-55.6L 530.7-55.6L 521.1-55.6L 521.1-17.8L 530.8-17.8Z"></path><g transform="matrix(0.24999999487772595, 0, 0, 0.24999999487772595, 191.99991596269126, 147.25228181387322)" data-uid="o_fc8chdan5_78"><path d="m495.118 198.276-181.384-181.384c-12.522-12.522-32.824-12.522-45.346 0l-181.385 181.384c-12.522 12.522-12.522 32.824 0 45.346l181.384 181.384c12.522 12.522 32.824 12.522 45.346 0l181.384-181.384c12.523-12.522 12.523-32.824.001-45.346z" fill="#ffc269" transform="matrix(1, 0, 0, 1, 0, 0)" data-uid="o_fc8chdan5_49"></path><path fill="#faf5dc" transform="matrix(1, 0, 0, 1, 0, 0)" data-type="circle" data-cx="291.061" data-cy="96.247" data-r="32.065" d="M291.061,96.247m-32.065,0a32.065,32.065 0 1, 0 64.13,0a32.065,32.065 0 1, 0 -64.13,0" data-uid="o_fc8chdan5_50"></path><path d="m296.09 159.807h-117.255c-4.97 0-6.925-3.788-7.406-4.948-.48-1.161-1.776-5.221 1.738-8.736l134.097-134.098c-12.291-7.234-28.324-5.686-38.876 4.867l-181.385 181.384c-12.522 12.522-12.522 32.824 0 45.346l181.384 181.384c12.521 12.522 32.824 12.522 45.345 0l38.47-38.47v-170.616c.001-30.941-25.171-56.113-56.112-56.113z" fill="#ffa95f" transform="matrix(1, 0, 0, 1, 0, 0)" data-uid="o_fc8chdan5_51"></path><path d="m291.061 128.312c11.954 0 22.258-6.619 27.772-16.317-4.669 2.654-9.993 4.293-15.747 4.293-17.709 0-32.065-14.356-32.065-32.065 0-5.755 1.638-11.078 4.292-15.748-9.698 5.514-16.317 15.818-16.317 27.772 0 17.709 14.356 32.065 32.065 32.065z" fill="#f5ebcd" transform="matrix(1, 0, 0, 1, 0, 0)" data-uid="o_fc8chdan5_52"></path><path fill="#faf5dc" transform="matrix(1, 0, 0, 1, 0, 0)" data-type="circle" data-cx="415.762" data-cy="220.949" data-r="32.065" d="M415.762,220.949m-32.065,0a32.065,32.065 0 1, 0 64.13,0a32.065,32.065 0 1, 0 -64.13,0" data-uid="o_fc8chdan5_53"></path><path d="m415.762 253.014c11.954 0 22.258-6.619 27.772-16.317-4.669 2.654-9.993 4.293-15.747 4.293-17.709 0-32.065-14.356-32.065-32.065 0-5.755 1.638-11.078 4.292-15.748-9.698 5.514-16.316 15.818-16.316 27.772 0 17.709 14.355 32.065 32.064 32.065z" fill="#f5ebcd" transform="matrix(1, 0, 0, 1, 0, 0)" data-uid="o_fc8chdan5_54"></path><path d="m296.09 183.855h-256.516c-17.709 0-32.065 14.356-32.065 32.065v256.516c0 17.709 14.356 32.065 32.065 32.065h256.516c17.709 0 32.065-14.356 32.065-32.065v-256.516c0-17.709-14.356-32.065-32.065-32.065z" fill="#faf5dc" transform="matrix(1, 0, 0, 1, 0, 0)" data-uid="o_fc8chdan5_55"></path><path fill="#ffa95f" transform="matrix(1, 0, 0, 1, 0, 0)" data-type="circle" data-cx="79.655" data-cy="256" data-r="32.065" d="M79.655,256m-32.065,0a32.065,32.065 0 1, 0 64.13,0a32.065,32.065 0 1, 0 -64.13,0" data-uid="o_fc8chdan5_56"></path><path d="m79.655 223.936c-11.954 0-22.258 6.619-27.772 16.317 4.669-2.654 9.993-4.293 15.748-4.293 17.709 0 32.065 14.356 32.065 32.065 0 5.755-1.638 11.078-4.292 15.747 9.698-5.514 16.317-15.818 16.317-27.772-.002-17.709-14.357-32.064-32.066-32.064z" fill="#ff8b5a" transform="matrix(1, 0, 0, 1, 0, 0)" data-uid="o_fc8chdan5_57"></path><path fill="#ffa95f" transform="matrix(1, 0, 0, 1, 0, 0)" data-type="circle" data-cx="167.832" data-cy="344.178" data-r="32.065" d="M167.832,344.178m-32.065,0a32.065,32.065 0 1, 0 64.13,0a32.065,32.065 0 1, 0 -64.13,0" data-uid="o_fc8chdan5_58"></path><path d="m167.832 312.113c-11.954 0-22.258 6.619-27.772 16.317 4.669-2.654 9.993-4.293 15.747-4.293 17.709 0 32.065 14.356 32.065 32.065 0 5.755-1.638 11.078-4.292 15.748 9.698-5.514 16.317-15.818 16.317-27.772-.001-17.709-14.356-32.065-32.065-32.065z" fill="#ff8b5a" transform="matrix(1, 0, 0, 1, 0, 0)" data-uid="o_fc8chdan5_59"></path><path fill="#ffa95f" transform="matrix(1, 0, 0, 1, 0, 0)" data-type="circle" data-cx="256.009" data-cy="432.355" data-r="32.065" d="M256.009,432.355m-32.065,0a32.065,32.065 0 1, 0 64.13,0a32.065,32.065 0 1, 0 -64.13,0" data-uid="o_fc8chdan5_60"></path><path d="m256.009 400.291c-11.954 0-22.258 6.619-27.772 16.317 4.669-2.654 9.993-4.293 15.747-4.293 17.709 0 32.065 14.356 32.065 32.065 0 5.755-1.638 11.078-4.292 15.747 9.698-5.514 16.317-15.818 16.317-27.772 0-17.709-14.356-32.064-32.065-32.064z" fill="#ff8b5a" transform="matrix(1, 0, 0, 1, 0, 0)" data-uid="o_fc8chdan5_61"></path><path fill="#ffa95f" transform="matrix(1, 0, 0, 1, 0, 0)" data-type="circle" data-cx="256.009" data-cy="256" data-r="32.065" d="M256.009,256m-32.065,0a32.065,32.065 0 1, 0 64.13,0a32.065,32.065 0 1, 0 -64.13,0" data-uid="o_fc8chdan5_62"></path><path d="m256.009 223.936c-11.954 0-22.258 6.619-27.772 16.317 4.669-2.654 9.993-4.293 15.747-4.293 17.709 0 32.065 14.356 32.065 32.065 0 5.755-1.638 11.078-4.292 15.747 9.698-5.514 16.317-15.818 16.317-27.772 0-17.709-14.356-32.064-32.065-32.064z" fill="#ff8b5a" transform="matrix(1, 0, 0, 1, 0, 0)" data-uid="o_fc8chdan5_63"></path><path fill="#ffa95f" transform="matrix(1, 0, 0, 1, 0, 0)" data-type="circle" data-cx="79.655" data-cy="432.355" data-r="32.065" d="M79.655,432.355m-32.065,0a32.065,32.065 0 1, 0 64.13,0a32.065,32.065 0 1, 0 -64.13,0" data-uid="o_fc8chdan5_64"></path><path d="m79.655 400.291c-11.954 0-22.258 6.619-27.772 16.317 4.669-2.654 9.993-4.293 15.748-4.293 17.709 0 32.065 14.356 32.065 32.065 0 5.755-1.638 11.078-4.292 15.747 9.698-5.514 16.317-15.818 16.317-27.772-.002-17.709-14.357-32.064-32.066-32.064z" fill="#ff8b5a" transform="matrix(1, 0, 0, 1, 0, 0)" data-uid="o_fc8chdan5_65"></path><path d="m55.606 480.452c-13.26 0-24.048-10.788-24.048-24.048v-271.415c-13.805 3.576-24.048 16.007-24.048 30.931v256.516c0 17.708 14.355 32.065 32.065 32.065h256.515c14.924 0 27.355-10.243 30.931-24.048h-271.415z" fill="#f5ebcd" transform="matrix(1, 0, 0, 1, 0, 0)" data-uid="o_fc8chdan5_66"></path><path d="m296.09 176.355h-256.516c-21.816 0-39.564 17.749-39.564 39.564v256.516c-.001 21.817 17.748 39.565 39.564 39.565h256.516c21.816 0 39.564-17.749 39.564-39.564v-256.516c0-21.816-17.748-39.565-39.564-39.565zm24.564 296.081c0 13.545-11.02 24.564-24.564 24.564h-256.516c-13.545 0-24.564-11.02-24.564-24.564v-256.516c0-13.545 11.02-24.564 24.564-24.564h256.516c13.545 0 24.564 11.02 24.564 24.564z" transform="matrix(1, 0, 0, 1, 0, 0)" data-uid="o_fc8chdan5_68"></path><path d="m167.832 304.613c-21.816 0-39.564 17.749-39.564 39.564 0 21.816 17.749 39.565 39.564 39.565s39.564-17.749 39.564-39.565c.001-21.815-17.748-39.564-39.564-39.564zm0 64.129c-13.545 0-24.564-11.02-24.564-24.565s11.02-24.564 24.564-24.564 24.564 11.02 24.564 24.564-11.019 24.565-24.564 24.565z" transform="matrix(1, 0, 0, 1, 0, 0)" data-uid="o_fc8chdan5_69"></path><path d="m79.654 216.436c-21.816 0-39.564 17.749-39.564 39.565s17.749 39.564 39.564 39.564 39.564-17.749 39.564-39.564c.001-21.817-17.748-39.565-39.564-39.565zm0 64.129c-13.545 0-24.564-11.02-24.564-24.564s11.02-24.565 24.564-24.565 24.564 11.02 24.564 24.565-11.019 24.564-24.564 24.564z" transform="matrix(1, 0, 0, 1, 0, 0)" data-uid="o_fc8chdan5_70"></path><path d="m285.193 240.718c-4.011 1.032-6.426 5.121-5.394 9.133.514 1.996.774 4.065.774 6.15 0 13.545-11.02 24.564-24.564 24.564s-24.564-11.02-24.564-24.564 11.02-24.565 24.564-24.565c2.097 0 4.176.263 6.181.782 4.009 1.038 8.102-1.371 9.141-5.38 1.038-4.01-1.371-8.102-5.38-9.141-3.232-.837-6.578-1.261-9.942-1.261-21.816 0-39.564 17.749-39.564 39.565s17.749 39.564 39.564 39.564 39.564-17.749 39.564-39.564c0-3.346-.42-6.673-1.248-9.889-1.031-4.012-5.12-6.427-9.132-5.394z" transform="matrix(1, 0, 0, 1, 0, 0)" data-uid="o_fc8chdan5_71"></path><path d="m108.838 417.073c-4.011 1.033-6.425 5.123-5.393 9.134.514 1.993.774 4.062.774 6.149 0 13.545-11.02 24.564-24.564 24.564s-24.565-11.02-24.565-24.565 11.02-24.564 24.564-24.564c2.097 0 4.177.263 6.181.782 4.011 1.039 8.103-1.371 9.141-5.38 1.038-4.01-1.371-8.102-5.38-9.141-3.232-.837-6.577-1.261-9.942-1.261-21.816 0-39.564 17.749-39.564 39.564s17.749 39.564 39.564 39.564 39.564-17.749 39.564-39.564c0-3.348-.42-6.676-1.248-9.89-1.032-4.012-5.123-6.422-9.132-5.392z" transform="matrix(1, 0, 0, 1, 0, 0)" data-uid="o_fc8chdan5_72"></path><path d="m256.009 392.791c-21.816 0-39.564 17.749-39.564 39.564s17.749 39.564 39.564 39.564 39.564-17.749 39.564-39.564-17.748-39.564-39.564-39.564zm0 64.129c-13.545 0-24.564-11.02-24.564-24.564s11.02-24.564 24.564-24.564 24.564 11.02 24.564 24.564-11.019 24.564-24.564 24.564z" transform="matrix(1, 0, 0, 1, 0, 0)" data-uid="o_fc8chdan5_73"></path><path d="m319.037 124.224c15.426-15.426 15.426-40.526 0-55.952s-40.526-15.426-55.952 0-15.426 40.526 0 55.952c7.713 7.713 17.845 11.57 27.976 11.57s20.263-3.857 27.976-11.57zm-45.346-45.346c4.789-4.789 11.079-7.183 17.37-7.183s12.581 2.394 17.37 7.183c9.578 9.578 9.578 25.162 0 34.74s-25.161 9.578-34.739 0c-9.579-9.579-9.579-25.163-.001-34.74z" transform="matrix(1, 0, 0, 1, 0, 0)" data-uid="o_fc8chdan5_74"></path><path d="m443.739 248.926c15.426-15.426 15.426-40.526 0-55.953s-40.527-15.426-55.953 0-15.426 40.526 0 55.953c7.713 7.713 17.845 11.57 27.977 11.57 10.131-.001 20.263-3.857 27.976-11.57zm-45.346-10.607c-9.578-9.578-9.578-25.162 0-34.74 4.789-4.789 11.08-7.183 17.37-7.183s12.581 2.394 17.37 7.183c9.578 9.578 9.578 25.162 0 34.74-9.579 9.578-25.163 9.577-34.74 0z" transform="matrix(1, 0, 0, 1, 0, 0)" data-uid="o_fc8chdan5_75"></path><path d="m500.422 192.973-181.385-181.384c-7.473-7.473-17.408-11.589-27.976-11.589s-20.503 4.115-27.977 11.589l-134.899 134.899c-2.929 2.929-2.929 7.677 0 10.606s7.678 2.929 10.606 0l134.9-134.899c4.64-4.64 10.809-7.195 17.37-7.195s12.73 2.555 17.37 7.195l181.385 181.384c9.577 9.578 9.577 25.162 0 34.74l-134.9 134.899c-2.929 2.929-2.929 7.677 0 10.606 1.464 1.465 3.384 2.197 5.303 2.197s3.839-.732 5.303-2.197l134.899-134.899c15.426-15.426 15.426-40.526.001-55.952z" transform="matrix(1, 0, 0, 1, 0, 0)" data-uid="o_fc8chdan5_76"></path></g></svg>